<svg width="31" height="37" viewBox="0 0 31 37" fill="none" xmlns="http://www.w3.org/2000/svg">
<path d="M17.7536 9.70109V0H1.90217C0.848053 0 0 0.763247 0 1.71196V34.8098C0 35.7585 0.848053 36.5217 1.90217 36.5217H28.5326C29.5867 36.5217 30.4348 35.7585 30.4348 34.8098V11.413H19.6558C18.6096 11.413 17.7536 10.6427 17.7536 9.70109ZM22.8261 26.5353C22.8261 27.0061 22.3981 27.3913 21.875 27.3913H8.55978C8.03669 27.3913 7.6087 27.0061 7.6087 26.5353V25.9647C7.6087 25.4939 8.03669 25.1087 8.55978 25.1087H21.875C22.3981 25.1087 22.8261 25.4939 22.8261 25.9647V26.5353ZM22.8261 21.9701C22.8261 22.4409 22.3981 22.8261 21.875 22.8261H8.55978C8.03669 22.8261 7.6087 22.4409 7.6087 21.9701V21.3995C7.6087 20.9287 8.03669 20.5435 8.55978 20.5435H21.875C22.3981 20.5435 22.8261 20.9287 22.8261 21.3995V21.9701ZM22.8261 16.8342V17.4049C22.8261 17.8757 22.3981 18.2609 21.875 18.2609H8.55978C8.03669 18.2609 7.6087 17.8757 7.6087 17.4049V16.8342C7.6087 16.3635 8.03669 15.9783 8.55978 15.9783H21.875C22.3981 15.9783 22.8261 16.3635 22.8261 16.8342ZM30.4348 8.69531V9.13043H20.2899V0H20.7733C21.2806 0 21.764 0.178329 22.1207 0.499321L29.88 7.48981C30.2366 7.8108 30.4348 8.24592 30.4348 8.69531Z" fill="#2C5AC5"/>
</svg>
