<?xml version="1.0" encoding="utf-8"?>
<!-- Generator: Adobe Illustrator 27.5.0, SVG Export Plug-In . SVG Version: 6.00 Build 0)  -->
<svg version="1.1" xmlns="http://www.w3.org/2000/svg" xmlns:xlink="http://www.w3.org/1999/xlink" x="0px" y="0px"
	 viewBox="0 0 1100 800" style="enable-background:new 0 0 1100 800;" xml:space="preserve">
<g id="Shadow">
	<g style="opacity:0.5;">
		<path style="fill:#EED5D5;" d="M521.964,644.118c-28.193,0.084-56.385,0.762-84.528,3.892c-10.611,1.18-21,3.776-31.635,4.823
			c-21.244,2.092-42.107,5.993-63.426,7.793c-17.168,1.449-34.408,2.305-51.526,4.143c-16.049,1.724-33.816,1.326-49.742-1.522
			c-11.79-2.109-23.633-3.296-35.225-6.682c-12.967-3.789-27.055-6.498-40.565-6.4c-19.266,0.139-38.028,0.155-56.466,6.845
			c-6.472,2.348-14.395,6.209-19.31,11.137c-11.251,11.282-12.774,39.432-1.54,51.133c18.921,19.693,59.305,27.42,85.827,27.785
			c29.063,0.4,57.296-1.758,86.401-3.026c27.045-1.179,54.023-2.856,81.113-2.797c55.328,0.121,110.664,0,165.893-3.696
			c51.888-3.472,103.907-2.28,155.909-2.28c53.326,0,106.291,0.419,159.233,7.506c23.067,3.088,46.568,4.169,69.75,6.332
			c20.762,1.938,40.714-0.038,61.394-1.829c17.365-1.504,34.616-5.964,50.391-13.503c12.487-5.968,34.749-24.507,38.579-38.752
			c10.736-39.935-151.3-38.975-176.179-38.885c-27.831,0.101-55.884,1.016-83.693-0.045c-11.698-0.446-23.224-2.733-34.641-5.238
			c-11.372-2.495-22.83-1.861-34.362-2.91c-48.092-4.374-96.291-3.734-144.536-3.734
			C553.379,644.209,537.671,644.071,521.964,644.118z"/>
	</g>
</g>
<g id="Object">
	<g>
		<g>
			<g id="XMLID_30_">
				<path style="fill:#AA6755;" d="M411.398,198.232l6.503-5.502l8.424,2.688l4.833,7.035l-2.206,6.006l-6.84,3.965l2.597,0.693
					l-0.475,2.117l-10.743,4.894c-2.583-2.691-11.292-4.759-12.676-6.201l7.186-6.174L411.398,198.232z"/>
			</g>
			<g id="XMLID_29_">
				<polygon style="fill:#4B505B;" points="199.849,692.436 199.597,694.89 198.762,703.034 214.987,712.933 224.353,705.666 
					216.658,696.644 215.942,696.208 215.563,697.145 				"/>
			</g>
			<path style="fill:#353A85;" d="M280.405,510.979c-18.387,1.209-48.45,7.728-61.857,7.906l0.477,62.871l-20.051,110.418
				l0.876,0.262l15.714,4.709l0.379-0.937l52.692-130.179l1.84-26.542L280.405,510.979z"/>
			<g id="XMLID_28_">
				<path style="fill:#353A85;" d="M271.418,525.867l-0.944,13.62l4.71,34.512l5.368,124.558l0.091,0.003l0.067-1.801l16.035,0.488
					l25.303-132.24l1.364-54.028c-17.385,2.774-35.612,4.605-52.821,5.805L271.418,525.867z"/>
			</g>
			<polygon style="fill:#4B505B;" points="297.851,697.28 296.745,697.247 280.711,696.758 280.643,698.559 280.405,704.94 
				297.24,713.645 306.116,705.724 			"/>
			<g>
				<path style="fill:#AA6755;" d="M241.446,245.228c-0.535-1.354-1.071-2.707-1.606-4.061c0.04-0.03,0.082-0.058,0.123-0.089
					c7.106-5.389,10.353-14.774,9.965-23.646c-0.253-5.788-1.87-11.389-4.19-16.722c-1.775-3.051-3.952-5.851-6.48-8.246
					c-4.574-4.335-10.766-7.78-16.814-7.569c-2.459,0.086-1.435,2.002-4.408,0.488c-0.401-0.204-0.873-0.624-1.348-1.147
					c-0.435,0.477-0.736,0.814-0.819,0.9c-2.855,2.97-6.009,4.388-9.434,6.542c-5.199,3.268-7.995,10.214-6.749,16.763
					c0.516,2.71,1.655,5.499,1.002,8.096c-0.571,2.267-2.384,3.831-3.538,5.799c-0.673,1.149-1.096,2.459-1.289,3.822
					c5.69,10.338,16.489,18.654,27.599,19.675c0.009,0.041,0.019,0.081,0.028,0.122c0.149,0.658,0.301,1.314,0.484,1.954
					c0.814,2.848,2.752,5.857,5.72,6.07c1.356,0.097,2.673-0.422,3.934-0.932c2.544-1.028,5.089-2.057,7.633-3.085
					c0.521-0.211,1.096-0.475,1.292-0.999c0.171-0.461-0.01-0.969-0.191-1.425C242.055,246.769,241.751,245.999,241.446,245.228z"/>
			</g>
			<g>
				<path style="fill:#292949;" d="M296.227,173.19c-6.016-0.362-11.334,3.16-16.225,6.556c-0.871-5.918-6.563-9.996-12.026-11.593
					c-5.463-1.598-11.213-1.587-16.554-3.677c-6.42-2.512-12.761-8.063-19.137-6.255c-5.739,1.627-9.321,8.606-12.889,14.801
					c-0.094-0.099-0.188-0.2-0.282-0.298c-2.747-2.855-5.741-5.594-9.282-7.057c-11.447-4.731-10.133,9.557-18.93,8.8
					c-2.122-0.183-3.919-1.863-5.921-2.745c-3.783-1.666-7.995-0.347-11.38,1.712c-3.385,2.058-6.37,4.842-10.012,6.38
					c-3.234,1.365-6.892,1.703-9.907,3.513c-4.529,2.718-3.601,7.635-4.406,12.116c-0.891,4.961-2.255,11.643-4.937,15.761
					c-1.933,2.967-4.924,4.905-7.432,7.327c-2.508,2.422-4.666,5.797-4.13,9.504c0.508,3.512,3.293,6.364,4.093,9.833
					c1.097,5.186,0.532,7.988,2.844,13.133c1.193,2.655,2.508,5.46,4.835,7.074c3.067,2.127,6.974,1.569,10.338,0.55
					c3.363-1.019,6.793-2.43,10.328-1.737c7.666,1.503,7.245,9.078,9.999,15.023c1.835,3.961,5.11,6.968,8.881,8.725
					c4.842,2.255,10.504,2.448,14.989-0.054c6.765-3.773,9.833-12.549,8.466-20.639c-0.498-2.942-1.746-5.638-2.64-8.448
					c-0.338-1.06-0.628-2.134-0.804-3.246c-0.619-3.916,0.908-9.649-3.074-12.302c-0.97-0.646-2.139-0.901-3.034-1.665
					c-0.724-0.617-1.196-1.51-1.536-2.419c-0.685-1.828-0.869-3.817-0.601-5.702c0.193-1.363,0.616-2.673,1.289-3.822
					c1.154-1.967,2.967-3.532,3.538-5.799c0.654-2.597-0.486-5.387-1.002-8.096c-1.246-6.549,1.55-13.496,6.749-16.763
					c3.425-2.154,6.579-3.572,9.434-6.542c0.083-0.086,0.384-0.423,0.819-0.9c0.475,0.523,0.947,0.943,1.348,1.147
					c2.973,1.514,1.949-0.402,4.408-0.488c6.048-0.211,12.239,3.234,16.814,7.569c2.528,2.395,4.705,5.195,6.48,8.246
					c3.162,5.435,5.034,11.673,5.23,17.897c0.28,8.891-4.33,12.811-0.096,21.771c0.94,1.99,2.099,3.876,3.427,5.623
					c3.633,4.78,8.567,8.492,14.03,10.224c0.621,0.002,1.239-0.027,1.853-0.076c3.083-0.246,6.063-1.122,8.802-2.509
					c2.732-1.384,5.225-3.272,7.335-5.556c3.167-3.426,5.478-7.732,6.461-12.521c0.535-2.607,0.792-5.495,2.505-7.38
					c1.379-1.518,3.484-2.105,4.895-3.589c5.871-6.171-5.335-17.371-2.813-25.85c1.595-5.36,8.189-7.452,9.622-12.873
					C308.592,179.817,302.244,173.552,296.227,173.19z"/>
			</g>
			<g>
				<g>
					<path style="fill:#DDDAE8;" d="M422.506,216.791c-1.966-0.357-22.41-6.155-22.414-6.156
						c1.198,0.189-49.298,37.257-54.08,40.142c-14.681,8.857-42.45-1.952-59.691-2.692c-2.111,2.283-4.603,4.172-7.335,5.556
						c-2.739,1.387-5.719,2.263-8.802,2.509c-0.614,0.049-1.232,0.078-1.853,0.076c-5.463-1.732-10.397-5.444-14.03-10.224
						c-2.106-0.491-3.787-0.848-4.919-1.094l-7.934,0.321c0.304,0.77,0.609,1.54,0.914,2.311c0.18,0.456,0.362,0.964,0.191,1.425
						c-0.196,0.524-0.771,0.788-1.292,0.999c-2.544,1.028-5.089,2.057-7.633,3.085c-1.261,0.51-2.578,1.029-3.934,0.932
						c-2.968-0.213-4.906-3.222-5.72-6.07c-0.183-0.641-0.335-1.296-0.484-1.954l-15.059,0.61l-3.519,4.927
						c0.894,2.81,2.143,5.506,2.64,8.448c1.368,8.091-1.701,16.867-8.466,20.639c-4.485,2.501-10.147,2.309-14.989,0.054
						l-3.129,176.735l14.779,66.722c0,0,10.627,0.291,27.059,0.073c12.68-0.168,28.818-0.641,46.209-1.784
						c1.001-0.065,2.005-0.134,3.014-0.204c16.276-1.134,33.515-2.866,49.957-5.49c6.338-1.011,12.559-2.153,18.558-3.447
						c0,0,15.429-41.928-6.739-147.134c-3.483-16.53-8.301-35.105-12.979-51.556c14.779-12.68,54.379-34.597,67.314-49.153
						c14.169-15.945,34.498-48.582,34.945-48.501C423.081,216.895,422.868,216.857,422.506,216.791z"/>
				</g>
			</g>
		</g>
		<g>
			<polygon style="fill:#F4F4F4;" points="850.353,239.578 816.727,245.503 757.101,291.685 677.489,270.901 668.267,290.032 
				742.283,325.651 774.531,333.785 816.43,320.112 			"/>
			<polygon style="fill:#EAC1A4;" points="675.325,283.421 662.87,289.653 653.973,288.647 653.917,285.611 659.137,283.529 
				642.246,279.865 640.695,271.715 660.937,266.906 679.28,272.248 			"/>
			<g>
				<path style="fill:#23262D;" d="M813.09,678.455l-15.701,11.122l-5.234,8.505c0,0,5.888,2.617,9.159,3.271
					c3.271,0.654,28.786-3.271,28.786-3.271v-15.047L813.09,678.455z"/>
				<path style="fill:#23262D;" d="M935.094,683.192l-5.795,10.54c0,0-3.626,13.316-0.484,12.404
					c3.141-0.913,20.652-3.956,21.36-6.206c0.709-2.25,8.308-11.27,9.199-12.891c0.892-1.622-2.89-12.47-2.89-12.47L935.094,683.192
					z"/>
				<path style="fill:#292949;" d="M827.706,435.141l50.697,151.347l56.691,96.704l21.989-6.388l-37.586-110.294
					c0,0-4.539-110.795-11.963-143.384L827.706,435.141z"/>
				<polygon style="fill:#292949;" points="787.575,457.981 807.202,683.034 830.754,683.034 837.951,567.891 851.471,465.949 
					800.006,405.643 				"/>
				<path style="fill:#F4F4F4;" d="M786.82,313.974c2.437-11.599,3.398-24.085,9.143-34.899
					c5.745-10.815,16.596-19.008,24.974-28.203c3.549-3.896,7.337-7.951,12.613-9.807c3.616-1.273,7.605-1.387,11.5-1.486
					c11.814-0.298,23.628-0.595,35.442-0.893c4.307-0.108,8.786-0.188,12.713,1.368c5.884,2.332,9.209,7.752,12.117,12.808
					c7.426,12.912,8.795,27.235,9.459,41.83c-0.022,0.137,9.217,183.312,1.889,179.873c-9.126-4.283-19.565-6.559-29.804-8.152
					c-14.437-2.314-29.175-3.784-43.889-4.146l-25.899,1.747h-15.63c-9.38,0.91-8.61,3.73-18.251,3.144
					C777.03,466.782,784.027,327.269,786.82,313.974z"/>
				<g>
					<path style="fill:#EAC1A4;" d="M854.684,245.503c5.863-0.255,11.726-0.509,17.59-0.764c0.316-4.67,0.258-9.365-0.173-14.025
						c4.955-1.439,10.713-3.691,11.842-8.725c0.356-1.586,0.17-3.237-0.018-4.851c-0.776-6.674-1.551-13.347-2.327-20.021
						c-0.268-2.308-0.558-4.685-1.693-6.713c-1.991-3.558-6.142-5.297-10.115-6.216c-10.138-2.345-21.415-0.746-29.724,5.518
						c-2.211,1.667-4.24,3.706-5.316,6.258c-1.659,3.935-0.83,8.422,0.024,12.605c0.788,3.861,1.576,7.723,2.365,11.585
						c0.907,4.441,2.29,9.51,6.417,11.385c2.191,0.996,4.849,0.888,6.805,2.29C853.811,236.302,853.034,241.592,854.684,245.503z"/>
					<path style="fill:#292949;" d="M822.198,160.689c1.302-0.232,2.63-0.507,3.975-1.092c4.247-1.849,7.224-5.556,11.734-7.291
						c9.123-3.51,20.565-3,29.526,0.769c8.576,3.607,20.28,4.995,27.955,9.841c3.205,2.024,5.685,5.046,7.565,8.337
						c6.516,11.402,5.713,26.581-1.969,37.232c-1.723,2.39-3.747,4.549-5.861,6.601c-4.376,4.247-9.62,9.503-15.39,10.846
						c0.147-5.087,5.662-20.847,1.992-25.227c-4.867-5.807-14.418-5.659-21.263-5.018c-8.156,0.764-14.87-1.855-23.004-1.448
						c-4.143,0.207-8.828,1.04-12.005-1.628c-3.672-3.084-11.436-12.879-13.277-17.178c-1.612-3.764-0.537-8.399,2.265-11.384
						C816.862,161.474,819.473,161.175,822.198,160.689z"/>
				</g>
			</g>
			<g>
				<path style="fill:#D67086;" d="M839.913,365.053l-14.885,18.408l-7.5-22.027c0-1.817,0.343-3.613,1.037-5.292
					c3.105-7.514,35.773-101.62,35.773-101.62s1.317-4.871,1.93-9.163l10.468-0.654l-1.722,10.691l-4.905,4.21L839.913,365.053z"/>
			</g>
		</g>
		<path style="fill:#D9A3A3;" d="M562.498,467.208l-0.006,54.845c0.255-1.1,0.422-2.244,0.422-3.45v-86.882h-0.412L562.498,467.208z
			"/>
		<path style="fill:#D9A3A3;" d="M562.522,393.458l-0.006-53.728c-0.262,1.114-0.429,2.274-0.429,3.495v85.992h0.412v-35.758
			H562.522z"/>
		<path style="fill:#D9A3A3;" d="M602.194,338.769c-5.95-2.026-11.795-5.207-17.675-8.562c-1.91-1.09-3.908-1.701-5.892-1.908
			c1.906,0.337,3.863,1.006,5.813,2.064C590.528,333.668,596.332,336.821,602.194,338.769z"/>
		<path style="fill:#D9A3A3;" d="M562.509,262.599l-0.006-54.844L562.5,145.83c-0.137,0.006-0.275,0.004-0.412,0.011v113.308
			C562.088,260.355,562.254,261.499,562.509,262.599z"/>
		<path style="fill:#D67086;" d="M546.378,587.753c-1.906,0.336-3.865,1.006-5.815,2.065c-6.089,3.305-11.893,6.457-17.754,8.406
			c-8.828,3.006-17.887,3.468-27.639-1.833c-19.856-10.794-27.209-37.51-15.755-56.973c14.125-24.002,39.804-21.043,60.571-8.092
			c8.963,5.59,20.275,0.363,22.506-9.271l0.006-54.845l0.003-35.487h-0.002v-2.506h-0.412v2.021h-91.562
			c-7.028-1.866-11.588-8.63-11.032-15.662c-0.017-2.505,0.593-5.079,1.981-7.51c5.353-9.379,10.259-18.667,10.74-28.435
			c0.052-5.048-1.107-10.23-4.036-15.626c-10.782-19.862-37.495-27.23-56.963-15.788c-12.338,7.251-17.546,17.559-17.951,28.684
			c-0.047,10.172,3.82,20.953,9.873,30.662c1.878,3.011,2.532,6.291,2.213,9.402c-0.135,6.552-4.628,12.617-11.324,14.273h-55.215
			h-24.403c-0.264,0.402-0.539,0.793-0.792,1.207c-6.872,11.229-5.455,19.578,4.797,26.645c6.57,4.528,13.502,8.417,19.254,14.289
			c8.781,8.965,9.349,14.254,2.646,25.342c-7.545,12.481-7.505,12.991,4.089,21.858c3.112,2.38,6.406,4.17,2.035,8.674
			c-6.431,6.626-4.131,13.093,1.408,17.922c7.774,6.778,8.943,15.473,7.483,25.194c-1.274,8.482-3.152,16.857-4.739,25.284
			c-4.281,22.736,1.681,33.29,22.225,39.264c21.441,6.235,42.78,0.834,64.163-1.229c14.332-1.383,28.443-6.369,43.107-2.741
			c9.519,2.355,14.776,8.177,15.999,18.837c1.783,15.547,6.41,30.406,9.055,45.703c2.157,12.477,7.59,16.373,18.826,15.869
			c9.416-0.422,22.884-0.621,38.513-0.681l0.009-113.494C560.747,591.802,553.675,586.992,546.378,587.753z"/>
		<path style="fill:#474EBB;" d="M562.509,262.599c2.231,9.634,13.543,14.861,22.507,9.271c20.768-12.951,46.446-15.91,60.571,8.093
			c11.453,19.462,4.101,46.179-15.755,56.972c-9.752,5.301-18.811,4.84-27.639,1.834c-5.862-1.948-11.666-5.101-17.754-8.406
			c-1.95-1.058-3.907-1.728-5.813-2.064c-7.299-0.762-14.374,4.05-16.11,11.43l0.006,53.728h-0.023v35.758h0.003v1.29l-0.001,1.215
			h0.412h92.681c8.348,3.012,12.699,13.119,7.896,21.525c-8.343,14.602-15.619,28.98-6.755,45.309
			c10.782,19.863,37.495,27.23,56.963,15.788c24.01-14.111,21.067-39.792,8.128-60.567c-5.278-8.475-0.888-19.04,7.743-22.056
			h56.662c7.534-19.103,11.929-38.631,13.132-57.592c1.929-49.139-7.615-89.768-30.095-122.99
			c-46.119-68.156-110.685-99.202-185.742-104.971c-7.049-0.542-14.06-0.637-21.028-0.338l0.003,61.924L562.509,262.599z"/>
		<polygon style="fill:#474EBB;" points="562.502,429.216 562.499,429.216 562.499,431.721 562.501,431.721 562.502,430.506 		"/>
		<path style="fill:#353A85;" d="M732.377,713.398c13.417-0.728,6.906-9.102,0.72-22.105
			c-50.189-105.497,9.593-190.534,19.381-202.433c14.671-17.835,25.914-37.257,33.755-57.139h-56.662
			c-8.632,3.015-13.021,13.58-7.743,22.056c12.939,20.775,15.883,46.456-8.128,60.567c-19.469,11.442-46.181,4.075-56.963-15.788
			c-8.865-16.329-1.589-30.708,6.755-45.309c4.804-8.406,0.452-18.513-7.896-21.525h-92.681v86.882c0,1.206-0.167,2.35-0.422,3.45
			v0.37c-2.347,9.494-13.557,14.601-22.455,9.058c-20.774-12.941-46.454-15.887-60.567,8.122
			c-11.444,19.468-2.977,45.729,16.884,56.513c9.602,5.214,18.086,4.888,26.453,2.107c5.949-2.026,11.794-5.207,17.675-8.562
			c1.911-1.09,3.91-1.701,5.895-1.908c7.633-1.348,14.393,2.881,16.107,11.17v0.258c0.262,1.115,0.429,2.275,0.429,3.497v109.995
			C623.394,712.452,715.891,714.293,732.377,713.398z"/>
		<path style="fill:#353A85;" d="M539.986,531.324c-20.768-12.951-46.447-15.91-60.571,8.092
			c-11.454,19.463-4.101,46.179,15.755,56.973c9.751,5.301,18.811,4.84,27.639,1.833c-8.367,2.781-16.852,3.107-26.453-2.107
			c-19.861-10.784-28.328-37.046-16.884-56.513c14.113-24.009,39.793-21.063,60.567-8.122c8.897,5.543,20.107,0.436,22.455-9.058
			v-0.37C560.261,531.687,548.95,536.914,539.986,531.324z"/>
		<path style="fill:#5D66D3;" d="M645.587,279.963c-14.125-24.003-39.804-21.044-60.571-8.093
			c-8.963,5.59-20.276,0.363-22.507-9.271c-0.255-1.1-0.422-2.244-0.422-3.45V145.841c-30.943,1.396-61.046,10.718-89.934,24.881
			c-7.768,3.809-15.407,7.971-22.976,12.256c-53.119,30.082-82.67,76.268-80.164,143.939c1.406,37.979-15.503,65.622-40.483,88.854
			c-4.517,4.201-9.005,8.379-12.704,13.419c-0.488,0.665-0.959,1.348-1.418,2.046h24.403h55.215
			c6.696-1.655,11.189-7.721,11.324-14.273c0.056-2.738-0.63-5.559-2.264-8.181c-6.291-10.1-10.205-21.357-9.823-31.883
			c0.405-11.125,5.613-21.433,17.951-28.684c19.469-11.442,46.181-4.075,56.963,15.788c2.929,5.396,4.088,10.578,4.036,15.626
			c-0.105,10.229-5.205,19.907-10.791,29.683c-1.16,2.029-1.764,4.157-1.93,6.262c-0.556,7.031,4.004,13.796,11.032,15.662h91.561
			v-2.021v-85.992c0-1.221,0.167-2.381,0.429-3.495c1.736-7.381,8.811-12.193,16.11-11.43c1.984,0.207,3.982,0.818,5.892,1.908
			c5.88,3.355,11.725,6.536,17.675,8.562c8.828,3.006,17.886,3.468,27.639-1.834C649.688,326.142,657.04,299.426,645.587,279.963z"
			/>
		<g>
			<polygon style="fill:#F4F4F4;" points="896.664,273.466 835.034,331.66 743.608,304.405 737.066,324.971 837.549,370.942 
				863.991,370.942 912.188,322.204 			"/>
			<polygon style="fill:#EAC1A4;" points="737.656,323.117 721.742,323.409 712.025,309.695 736.727,295.962 743.608,304.405 			"/>
		</g>
		<g>
			<polygon style="fill:#AA6755;" points="359.887,357.926 359.588,367.2 375.959,373.159 385.394,366.011 385.4,355.214 
				376.291,354.706 376.005,352.331 373.023,350.413 			"/>
			<path style="fill:#DDDAE8;" d="M311.959,337.429l50.511,9.989c0,0-2.91,30.808-2.882,28.247
				c0.028-2.561-66.328-5.568-66.328-5.568L311.959,337.429z"/>
		</g>
	</g>
</g>
</svg>
